0
SECTION
2
HEADER
9
$INSUNITS
70
4
9
$ACADVER
1
AC1014
9
$HANDSEED
5
FFFF
0
ENDSEC
0
SECTION
2
TABLES
0
TABLE
2
VPORT
5
8
100
AcDbSymbolTable
0
ENDTAB
0
TABLE
2
LTYPE
5
5
100
AcDbSymbolTable
0
LTYPE
5
14
100
AcDbSymbolTableRecord
100
AcDbLinetypeTableRecord
2
BYBLOCK
70
0
0
LTYPE
5
15
100
AcDbSymbolTableRecord
100
AcDbLinetypeTableRecord
2
BYLAYER
70
0
0
ENDTAB
0
TABLE
2
LAYER
5
2
100
AcDbSymbolTable
70
2
0
LAYER
5
50
100
AcDbSymbolTableRecord
100
AcDbLayerTableRecord
2
0
70
0
6
CONTINUOUS
0
ENDTAB
0
TABLE
2
STYLE
5
3
100
AcDbSymbolTable
70
1
0
STYLE
5
11
100
AcDbSymbolTableRecord
100
AcDbTextStyleTableRecord
2
STANDARD
70
0
0
ENDTAB
0
TABLE
2
VIEW
5
6
100
AcDbSymbolTable
70
0
0
ENDTAB
0
TABLE
2
UCS
5
7
100
AcDbSymbolTable
70
0
0
ENDTAB
0
TABLE
2
APPID
5
9
100
AcDbSymbolTable
70
2
0
APPID
5
12
100
AcDbSymbolTableRecord
100
AcDbRegAppTableRecord
2
ACAD
70
0
0
ENDTAB
0
TABLE
2
DIMSTYLE
5
A
100
AcDbSymbolTable
70
1
0
ENDTAB
0
TABLE
2
BLOCK_RECORD
5
1
100
AcDbSymbolTable
70
1
0
BLOCK_RECORD
5
1F
100
AcDbSymbolTableRecord
100
AcDbBlockTableRecord
2
*MODEL_SPACE
0
BLOCK_RECORD
5
1B
100
AcDbSymbolTableRecord
100
AcDbBlockTableRecord
2
*PAPER_SPACE
0
ENDTAB
0
ENDSEC
0
SECTION
2
BLOCKS
0
BLOCK
5
20
100
AcDbEntity
100
AcDbBlockBegin
2
*MODEL_SPACE
0
ENDBLK
5
21
100
AcDbEntity
100
AcDbBlockEnd
0
BLOCK
5
1C
100
AcDbEntity
100
AcDbBlockBegin
2
*PAPER_SPACE
0
ENDBLK
5
1D
100
AcDbEntity
100
AcDbBlockEnd
0
ENDSEC
0
SECTION
2
ENTITIES
0
LINE
5
100
100
AcDbEntity
8
0
100
AcDbLine
10
214.29590225219727
20
0.84375172853469849
30
0
11
220.12550354003906
21
1.7292220890522003
31
0
0
LINE
5
101
100
AcDbEntity
8
0
100
AcDbLine
10
208.47829818725586
20
-0.1165448036044836
30
0
11
214.29590225219727
21
0.84375172853469849
31
0
0
LINE
5
102
100
AcDbEntity
8
0
100
AcDbLine
10
202.67349243164062
20
-1.1515090614557266
30
0
11
208.47829818725586
21
-0.1165448036044836
31
0
0
LINE
5
103
100
AcDbEntity
8
0
100
AcDbLine
10
196.88240051269531
20
-2.2609689831733704
30
0
11
202.67349243164062
21
-1.1515090614557266
31
0
0
LINE
5
104
100
AcDbEntity
8
0
100
AcDbLine
10
191.1060905456543
20
-3.44474196434021
30
0
11
196.88240051269531
21
-2.2609689831733704
31
0
0
LINE
5
105
100
AcDbEntity
8
0
100
AcDbLine
10
185.34551620483398
20
-4.7026339173316956
30
0
11
191.1060905456543
21
-3.44474196434021
31
0
0
LINE
5
106
100
AcDbEntity
8
0
100
AcDbLine
10
185.34551620483398
20
-4.7026339173316956
30
0
11
185.34551620483398
21
-65.635132789611816
31
0
0
LINE
5
107
100
AcDbEntity
8
0
100
AcDbLine
10
185.34551620483398
20
-65.635132789611816
30
0
11
193.41499328613281
21
-81.669387817382812
31
0
0
LINE
5
108
100
AcDbEntity
8
0
100
AcDbLine
10
193.41499328613281
20
-81.669387817382812
30
0
11
196.80929183959961
21
-79.961123466491699
31
0
0
LINE
5
109
100
AcDbEntity
8
0
100
AcDbLine
10
196.98801040649414
20
-79.871211051940918
30
0
11
202.73630142211914
21
-77.009110450744629
31
0
0
LINE
5
110
100
AcDbEntity
8
0
100
AcDbLine
10
202.73630142211914
20
-77.009110450744629
30
0
11
208.50889205932617
21
-74.196419715881348
31
0
0
LINE
5
111
100
AcDbEntity
8
0
100
AcDbLine
10
208.50889205932617
20
-74.196419715881348
30
0
11
214.30540084838867
21
-71.433343887329102
31
0
0
LINE
5
112
100
AcDbEntity
8
0
100
AcDbLine
10
214.30540084838867
20
-71.433343887329102
30
0
11
220.12550354003906
21
-68.72006893157959
31
0
0
LINE
5
113
100
AcDbEntity
8
0
100
AcDbLine
10
220.12550354003906
20
-2.3131731152534485
30
0
11
220.12550354003906
21
-68.72006893157959
31
0
0
LINE
5
114
100
AcDbEntity
8
0
100
AcDbLine
10
220.12550354003906
20
1.7292220890522003
30
0
11
220.12550354003906
21
-2.1110351383686066
31
0
0
LINE
5
115
100
AcDbEntity
8
0
100
AcDbLine
10
139.2398738861084
20
0.3729470819234848
30
0
11
147.95198440551758
21
-1.1515086144208908
31
0
0
LINE
5
116
100
AcDbEntity
8
0
100
AcDbLine
10
130.50000190734863
20
1.7292222380638123
30
0
11
139.2398738861084
21
0.3729470819234848
31
0
0
LINE
5
117
100
AcDbEntity
8
0
100
AcDbLine
10
147.95198440551758
20
-1.1515086144208908
30
0
11
156.63310050964355
21
-2.8435784578323364
31
0
0
LINE
5
118
100
AcDbEntity
8
0
100
AcDbLine
10
156.63310050964355
20
-2.8435784578323364
30
0
11
165.27999877929688
21
-4.7026339173316956
31
0
0
LINE
5
119
100
AcDbEntity
8
0
100
AcDbLine
10
165.27999877929688
20
-4.7026339173316956
30
0
11
165.27999877929688
21
-65.635132789611816
31
0
0
LINE
5
120
100
AcDbEntity
8
0
100
AcDbLine
10
157.21048355102539
20
-81.669397354125977
30
0
11
165.27999877929688
21
-65.635132789611816
31
0
0
LINE
5
121
100
AcDbEntity
8
0
100
AcDbLine
10
153.81611824035645
20
-79.961123466491699
30
0
11
157.21048355102539
21
-81.669397354125977
31
0
0
LINE
5
122
100
AcDbEntity
8
0
100
AcDbLine
10
145.96765518188477
20
-76.06605052947998
30
0
11
153.63746643066406
21
-79.871211051940918
31
0
0
LINE
5
123
100
AcDbEntity
8
0
100
AcDbLine
10
138.25482368469238
20
-72.348837852478027
30
0
11
145.96765518188477
21
-76.06605052947998
31
0
0
LINE
5
124
100
AcDbEntity
8
0
100
AcDbLine
10
130.50000190734863
20
-68.72006893157959
30
0
11
138.25482368469238
21
-72.348837852478027
31
0
0
LINE
5
125
100
AcDbEntity
8
0
100
AcDbLine
10
130.50000190734863
20
-2.3131731152534485
30
0
11
130.50000190734863
21
-68.72006893157959
31
0
0
LINE
5
126
100
AcDbEntity
8
0
100
AcDbLine
10
130.50000190734863
20
1.7292222380638123
30
0
11
130.50000190734863
21
-2.1110354363918304
31
0
0
LINE
5
127
100
AcDbEntity
8
0
100
AcDbLine
10
153.63746643066406
20
-79.871211051940918
30
0
11
153.81611824035645
21
-79.961123466491699
31
0
0
LINE
5
128
100
AcDbEntity
8
0
100
AcDbLine
10
130.50000190734863
20
-2.3131731152534485
30
0
11
130.50000190734863
21
-2.1110354363918304
31
0
0
LINE
5
129
100
AcDbEntity
8
0
100
AcDbLine
10
196.98801040649414
20
-79.871211051940918
30
0
11
196.80929183959961
21
-79.961123466491699
31
0
0
LINE
5
130
100
AcDbEntity
8
0
100
AcDbLine
10
220.12550354003906
20
-2.1110351383686066
30
0
11
220.12550354003906
21
-2.3131731152534485
31
0
0
CIRCLE
5
131
100
AcDbEntity
8
0
100
AcDbCircle
10
199.16299583470615
20
-66.283383192695482
30
0
40
1.099999999999997
210
0
220
0
230
1
0
CIRCLE
5
132
100
AcDbEntity
8
0
100
AcDbCircle
10
193.48431882394488
20
-16.025482186969416
30
0
40
1.0999999999999968
210
0
220
0
230
1
0
CIRCLE
5
133
100
AcDbEntity
8
0
100
AcDbCircle
10
157.49999647960067
20
-15.999999642372131
30
0
40
1.0999999999999981
210
0
220
0
230
1
0
CIRCLE
5
134
100
AcDbEntity
8
0
100
AcDbCircle
10
151.74999660812318
20
-66.249998519197106
30
0
40
1.1000000000000052
210
0
220
0
230
1
0
ENDSEC
0
SECTION
2
OBJECTS
0
DICTIONARY
5
C
100
AcDbDictionary
3
ACAD_GROUP
350
D
3
ACAD_MLINESTYLE
350
17
0
DICTIONARY
5
D
100
AcDbDictionary
0
DICTIONARY
5
1A
330
C
100
AcDbDictionary
0
DICTIONARY
5
17
100
AcDbDictionary
0
ENDSEC
0
EOF
